<svg xmlns="http://www.w3.org/2000/svg" xmlns:xlink="http://www.w3.org/1999/xlink" version="1.1" x="0px" y="0px" width="100px" height="100px" viewBox="-0.109 -1.715 100 100" enable-background="new -0.109 -1.715 100 100" xml:space="preserve">
<path d="M83.772,64.402H14.596h-4.325v5.275h4.325v26.381h69.176V69.677h4.324v-5.275H83.772z"/>
<path d="M55.835,50.155c0-0.3-0.021-0.593-0.057-0.883c-0.333-2.817-2.246-5.145-4.829-6.088c-0.568-0.207-1.165-0.355-1.789-0.419  c-0.058-0.005-0.118-0.004-0.177-0.009c-0.192-0.015-0.386-0.029-0.582-0.029c-0.001,0-0.001,0-0.002,0  c-0.891,0-1.741,0.166-2.533,0.453c-2.852,1.037-4.894,3.764-4.894,6.975c0,2.645,1.388,4.96,3.469,6.276h4.916h0.023h2.981  C54.448,55.115,55.835,52.8,55.835,50.155z"/>
<path d="M66.379,59.344c-0.001-0.004-0.001-0.006-0.002-0.009c-0.003-0.01-0.007-0.017-0.009-0.027l-3.125-9.568  c-0.667-2.329-3.586-6.428-8.624-6.552l-0.836-0.001c2.087,1.614,3.438,4.132,3.438,6.968c0,2.454-1.012,4.676-2.639,6.276h2.143  l-0.296-0.879c-0.163-0.482,0.096-1.008,0.58-1.171c0.483-0.165,1.009,0.096,1.172,0.578l1.063,2.857h-0.117h-1.937h-4.45h-0.37  c0.039,0.047,0.074,0.095,0.111,0.144c0.516,0.665,0.828,1.496,0.828,2.4c0,0.97-0.354,1.857-0.939,2.544h11.383  c1.518,0,2.748-1.231,2.748-2.748C66.502,59.874,66.459,59.601,66.379,59.344z"/>
<path d="M49.381,57.817h-0.023h-2.99h-2.305h-4.53h-1.706l0.716-2.857c0.164-0.482,0.688-0.743,1.172-0.578  c0.483,0.163,0.743,0.688,0.579,1.171l-0.295,0.879h2.225c-1.625-1.601-2.637-3.822-2.637-6.276c0-2.841,1.356-5.365,3.449-6.978  h-0.001c-5.152,0.026-8.132,4.205-8.807,6.562l-1.852,9.611c0-0.001,0-0.001,0-0.001c-0.047,0.151-0.079,0.311-0.099,0.472  c0,0.007-0.002,0.012-0.003,0.018c-0.012,0.104-0.02,0.21-0.02,0.317c0,0.132,0.013,0.262,0.031,0.389  c0.171,1.205,1.122,2.158,2.328,2.328c0.127,0.019,0.256,0.031,0.388,0.031h11.365h2.99h0.023c1.404,0,2.543-1.14,2.543-2.544  c0-0.721-0.302-1.37-0.784-1.834C50.683,58.089,50.064,57.817,49.381,57.817z"/>
</svg>